%TF.GenerationSoftware,KiCad,Pcbnew,7.0.9*%
%TF.CreationDate,2024-07-21T15:20:36+08:00*%
%TF.ProjectId,DC-DC boost,44432d44-4320-4626-9f6f-73742e6b6963,rev?*%
%TF.SameCoordinates,Original*%
%TF.FileFunction,Copper,L2,Bot*%
%TF.FilePolarity,Positive*%
%FSLAX46Y46*%
G04 Gerber Fmt 4.6, Leading zero omitted, Abs format (unit mm)*
G04 Created by KiCad (PCBNEW 7.0.9) date 2024-07-21 15:20:36*
%MOMM*%
%LPD*%
G01*
G04 APERTURE LIST*
%TA.AperFunction,ComponentPad*%
%ADD10R,1.700000X1.700000*%
%TD*%
%TA.AperFunction,ComponentPad*%
%ADD11O,1.700000X1.700000*%
%TD*%
%TA.AperFunction,ViaPad*%
%ADD12C,0.800000*%
%TD*%
%TA.AperFunction,Conductor*%
%ADD13C,0.650000*%
%TD*%
%TA.AperFunction,Conductor*%
%ADD14C,0.400000*%
%TD*%
G04 APERTURE END LIST*
D10*
%TO.P,J1,1,Pin_1*%
%TO.N,Net-(J1-Pin_1)*%
X118500000Y-84200000D03*
D11*
%TO.P,J1,2,Pin_2*%
%TO.N,Net-(J1-Pin_2)*%
X118500000Y-86740000D03*
%TO.P,J1,3,Pin_3*%
%TO.N,Net-(J1-Pin_3)*%
X118500000Y-89280000D03*
%TD*%
D12*
%TO.N,Net-(J1-Pin_1)*%
X124075000Y-85875000D03*
X130125000Y-86750000D03*
%TO.N,Net-(J1-Pin_2)*%
X124600000Y-89900000D03*
X120925000Y-87275000D03*
%TD*%
D13*
%TO.N,Net-(J1-Pin_1)*%
X124075000Y-87800000D02*
X124875000Y-88600000D01*
X124875000Y-88600000D02*
X128900000Y-88600000D01*
X128900000Y-88600000D02*
X129550000Y-87950000D01*
X129550000Y-87950000D02*
X130125000Y-87375000D01*
X130125000Y-87375000D02*
X130125000Y-86750000D01*
X124075000Y-85875000D02*
X124075000Y-87800000D01*
D14*
%TO.N,Net-(J1-Pin_2)*%
X122100000Y-90300000D02*
X124200000Y-90300000D01*
X121000000Y-89200000D02*
X122100000Y-90300000D01*
X124200000Y-90300000D02*
X124600000Y-89900000D01*
X121000000Y-87350000D02*
X121000000Y-89200000D01*
X120925000Y-87275000D02*
X121000000Y-87350000D01*
%TD*%
%TA.AperFunction,NonConductor*%
G36*
X127217529Y-80009497D02*
G01*
X127381276Y-80016647D01*
X127405152Y-80018735D01*
X127462178Y-80023724D01*
X127636888Y-80045501D01*
X127729644Y-80057713D01*
X127814127Y-80068835D01*
X127873690Y-80079338D01*
X128054283Y-80117204D01*
X128120702Y-80131929D01*
X128240834Y-80158562D01*
X128276161Y-80168028D01*
X128464559Y-80224117D01*
X128546869Y-80250069D01*
X128658079Y-80285134D01*
X128665343Y-80287779D01*
X128699095Y-80300948D01*
X128864522Y-80365498D01*
X129052748Y-80443465D01*
X129052755Y-80443468D01*
X129056234Y-80445036D01*
X129250991Y-80540247D01*
X129432026Y-80634488D01*
X129435116Y-80636212D01*
X129515681Y-80684217D01*
X129621387Y-80747205D01*
X129698886Y-80796577D01*
X129793657Y-80856953D01*
X129796362Y-80858778D01*
X129946354Y-80965871D01*
X129972911Y-80984832D01*
X130135099Y-81109283D01*
X130137427Y-81111160D01*
X130303061Y-81251444D01*
X130454894Y-81390573D01*
X130609423Y-81545102D01*
X130744639Y-81692664D01*
X130748556Y-81696939D01*
X130888841Y-81862574D01*
X130890704Y-81864884D01*
X131015169Y-82027091D01*
X131141217Y-82203632D01*
X131143036Y-82206327D01*
X131252802Y-82378625D01*
X131363787Y-82564882D01*
X131365518Y-82567987D01*
X131419834Y-82672328D01*
X131459759Y-82749022D01*
X131554946Y-82943731D01*
X131556526Y-82947235D01*
X131634532Y-83135556D01*
X131712211Y-83334630D01*
X131714867Y-83341927D01*
X131751403Y-83457806D01*
X131775908Y-83535527D01*
X131831960Y-83723801D01*
X131841436Y-83759164D01*
X131882821Y-83945841D01*
X131920659Y-84126298D01*
X131931161Y-84185856D01*
X131954524Y-84363326D01*
X131976271Y-84537783D01*
X131983352Y-84618723D01*
X131990520Y-84782894D01*
X131999500Y-85000000D01*
X131999500Y-88999999D01*
X131990520Y-89217094D01*
X131983352Y-89381277D01*
X131976270Y-89462219D01*
X131954527Y-89636656D01*
X131931161Y-89814143D01*
X131920658Y-89873707D01*
X131882825Y-90054139D01*
X131841436Y-90240836D01*
X131831957Y-90276207D01*
X131775914Y-90464454D01*
X131714867Y-90658072D01*
X131713877Y-90660789D01*
X131712208Y-90665376D01*
X131634538Y-90864425D01*
X131556521Y-91052775D01*
X131554941Y-91056280D01*
X131459766Y-91250960D01*
X131365517Y-91432012D01*
X131363783Y-91435121D01*
X131252811Y-91621359D01*
X131143039Y-91793667D01*
X131141207Y-91796382D01*
X131015181Y-91972892D01*
X130890696Y-92135125D01*
X130888819Y-92137452D01*
X130748567Y-92303047D01*
X130609414Y-92454907D01*
X130454907Y-92609414D01*
X130303047Y-92748567D01*
X130137452Y-92888819D01*
X130135125Y-92890696D01*
X129972892Y-93015181D01*
X129796382Y-93141207D01*
X129793667Y-93143039D01*
X129621359Y-93252811D01*
X129435121Y-93363783D01*
X129432012Y-93365517D01*
X129250960Y-93459766D01*
X129056280Y-93554941D01*
X129052775Y-93556521D01*
X128864425Y-93634538D01*
X128665376Y-93712208D01*
X128660789Y-93713877D01*
X128658072Y-93714867D01*
X128547567Y-93749708D01*
X128464454Y-93775914D01*
X128276207Y-93831957D01*
X128240836Y-93841436D01*
X128054139Y-93882825D01*
X127873707Y-93920658D01*
X127814143Y-93931161D01*
X127636656Y-93954527D01*
X127462219Y-93976270D01*
X127389593Y-93982624D01*
X127381276Y-93983352D01*
X127373049Y-93983711D01*
X127217094Y-93990520D01*
X126999999Y-93999500D01*
X120000000Y-93999500D01*
X119782894Y-93990520D01*
X119618723Y-93983352D01*
X119537783Y-93976271D01*
X119363326Y-93954524D01*
X119228145Y-93936728D01*
X119185858Y-93931161D01*
X119155790Y-93925859D01*
X119126293Y-93920658D01*
X118945841Y-93882821D01*
X118759164Y-93841436D01*
X118723801Y-93831960D01*
X118535527Y-93775908D01*
X118457806Y-93751403D01*
X118341927Y-93714867D01*
X118334630Y-93712211D01*
X118135556Y-93634532D01*
X117947235Y-93556526D01*
X117943731Y-93554946D01*
X117749022Y-93459759D01*
X117567992Y-93365521D01*
X117564882Y-93363787D01*
X117378625Y-93252802D01*
X117206327Y-93143036D01*
X117203632Y-93141217D01*
X117027091Y-93015169D01*
X116864884Y-92890704D01*
X116862574Y-92888841D01*
X116696939Y-92748556D01*
X116692664Y-92744639D01*
X116545102Y-92609423D01*
X116390574Y-92454895D01*
X116251444Y-92303061D01*
X116111160Y-92137427D01*
X116109283Y-92135099D01*
X115984832Y-91972911D01*
X115938600Y-91908159D01*
X115858778Y-91796362D01*
X115856953Y-91793657D01*
X115856430Y-91792836D01*
X115747194Y-91621369D01*
X115636212Y-91435116D01*
X115634488Y-91432026D01*
X115540248Y-91250993D01*
X115445036Y-91056234D01*
X115443468Y-91052755D01*
X115365498Y-90864522D01*
X115300948Y-90699095D01*
X115287779Y-90665343D01*
X115285134Y-90658079D01*
X115224115Y-90464553D01*
X115168028Y-90276161D01*
X115158562Y-90240834D01*
X115117206Y-90054291D01*
X115079338Y-89873690D01*
X115068835Y-89814122D01*
X115045487Y-89636770D01*
X115023725Y-89462186D01*
X115016647Y-89381276D01*
X115012225Y-89280000D01*
X117144341Y-89280000D01*
X117164936Y-89515403D01*
X117164938Y-89515413D01*
X117226094Y-89743655D01*
X117226096Y-89743659D01*
X117226097Y-89743663D01*
X117263042Y-89822891D01*
X117325965Y-89957830D01*
X117325967Y-89957834D01*
X117374438Y-90027057D01*
X117461505Y-90151401D01*
X117628599Y-90318495D01*
X117725384Y-90386265D01*
X117822165Y-90454032D01*
X117822167Y-90454033D01*
X117822170Y-90454035D01*
X118036337Y-90553903D01*
X118264592Y-90615063D01*
X118452918Y-90631539D01*
X118499999Y-90635659D01*
X118500000Y-90635659D01*
X118500001Y-90635659D01*
X118539234Y-90632226D01*
X118735408Y-90615063D01*
X118963663Y-90553903D01*
X119177830Y-90454035D01*
X119371401Y-90318495D01*
X119538495Y-90151401D01*
X119674035Y-89957830D01*
X119773903Y-89743663D01*
X119835063Y-89515408D01*
X119855659Y-89280000D01*
X119835063Y-89044592D01*
X119773903Y-88816337D01*
X119674035Y-88602171D01*
X119559933Y-88439215D01*
X119538494Y-88408597D01*
X119371402Y-88241506D01*
X119371396Y-88241501D01*
X119185842Y-88111575D01*
X119142217Y-88056998D01*
X119135023Y-87987500D01*
X119166546Y-87925145D01*
X119185842Y-87908425D01*
X119221490Y-87883464D01*
X119371401Y-87778495D01*
X119538495Y-87611401D01*
X119674035Y-87417830D01*
X119773903Y-87203663D01*
X119782629Y-87171094D01*
X119818991Y-87111436D01*
X119881837Y-87080904D01*
X119951213Y-87089197D01*
X120005092Y-87133681D01*
X120026369Y-87200232D01*
X120025725Y-87216147D01*
X120019540Y-87274999D01*
X120019540Y-87275000D01*
X120039326Y-87463256D01*
X120039327Y-87463259D01*
X120097818Y-87643277D01*
X120097821Y-87643284D01*
X120192467Y-87807216D01*
X120206220Y-87822490D01*
X120267650Y-87890715D01*
X120297880Y-87953706D01*
X120299500Y-87973687D01*
X120299500Y-89176951D01*
X120299387Y-89180696D01*
X120295642Y-89242603D01*
X120295642Y-89242605D01*
X120306821Y-89303612D01*
X120307384Y-89307313D01*
X120314859Y-89368870D01*
X120314860Y-89368874D01*
X120318451Y-89378343D01*
X120324474Y-89399946D01*
X120326304Y-89409930D01*
X120351759Y-89466490D01*
X120353189Y-89469941D01*
X120375182Y-89527930D01*
X120375183Y-89527931D01*
X120380936Y-89536266D01*
X120391961Y-89555813D01*
X120396120Y-89565055D01*
X120396124Y-89565060D01*
X120434371Y-89613878D01*
X120436588Y-89616892D01*
X120439963Y-89621781D01*
X120471812Y-89667924D01*
X120471816Y-89667928D01*
X120471817Y-89667929D01*
X120518250Y-89709064D01*
X120520941Y-89711598D01*
X121588399Y-90779056D01*
X121590935Y-90781750D01*
X121624180Y-90819276D01*
X121632070Y-90828182D01*
X121683106Y-90863410D01*
X121686122Y-90865630D01*
X121712490Y-90886287D01*
X121734943Y-90903878D01*
X121741845Y-90906984D01*
X121744182Y-90908036D01*
X121763733Y-90919063D01*
X121772070Y-90924818D01*
X121830065Y-90946812D01*
X121833474Y-90948223D01*
X121880787Y-90969517D01*
X121890064Y-90973693D01*
X121890065Y-90973693D01*
X121890069Y-90973695D01*
X121900034Y-90975521D01*
X121921656Y-90981548D01*
X121921667Y-90981552D01*
X121931128Y-90985140D01*
X121976251Y-90990618D01*
X121992674Y-90992613D01*
X121996371Y-90993175D01*
X122057394Y-91004358D01*
X122112752Y-91001009D01*
X122119303Y-91000613D01*
X122123048Y-91000500D01*
X124176952Y-91000500D01*
X124180697Y-91000613D01*
X124188042Y-91001057D01*
X124242606Y-91004358D01*
X124280314Y-90997447D01*
X124303621Y-90993177D01*
X124307325Y-90992613D01*
X124325170Y-90990446D01*
X124368872Y-90985140D01*
X124378335Y-90981550D01*
X124399961Y-90975522D01*
X124400893Y-90975351D01*
X124409932Y-90973695D01*
X124466512Y-90948229D01*
X124469942Y-90946809D01*
X124527930Y-90924818D01*
X124536266Y-90919062D01*
X124555821Y-90908034D01*
X124565057Y-90903878D01*
X124613896Y-90865613D01*
X124616876Y-90863421D01*
X124667929Y-90828183D01*
X124667936Y-90828174D01*
X124673543Y-90823209D01*
X124675247Y-90825132D01*
X124724039Y-90794522D01*
X124731893Y-90792582D01*
X124879803Y-90761144D01*
X125052730Y-90684151D01*
X125205871Y-90572888D01*
X125332533Y-90432216D01*
X125427179Y-90268284D01*
X125485674Y-90088256D01*
X125505460Y-89900000D01*
X125485674Y-89711744D01*
X125453875Y-89613878D01*
X125445408Y-89587818D01*
X125443413Y-89517977D01*
X125479493Y-89458144D01*
X125542194Y-89427316D01*
X125563339Y-89425500D01*
X128863924Y-89425500D01*
X128868958Y-89425705D01*
X128922481Y-89430063D01*
X128922482Y-89430062D01*
X128922485Y-89430063D01*
X129000358Y-89419453D01*
X129078505Y-89410954D01*
X129078508Y-89410953D01*
X129082010Y-89410182D01*
X129096864Y-89406701D01*
X129100386Y-89405824D01*
X129100400Y-89405823D01*
X129174180Y-89378717D01*
X129248662Y-89353622D01*
X129248670Y-89353616D01*
X129251895Y-89352125D01*
X129265796Y-89345463D01*
X129268930Y-89343908D01*
X129268942Y-89343904D01*
X129335170Y-89301571D01*
X129402517Y-89261050D01*
X129402522Y-89261044D01*
X129405329Y-89258911D01*
X129417472Y-89249418D01*
X129420224Y-89247205D01*
X129420233Y-89247200D01*
X129448016Y-89219415D01*
X129475800Y-89191633D01*
X129505154Y-89163826D01*
X129532875Y-89137569D01*
X129532879Y-89137562D01*
X129535126Y-89134917D01*
X129547551Y-89119880D01*
X130165367Y-88502066D01*
X130683211Y-87984220D01*
X130686891Y-87980827D01*
X130727843Y-87946044D01*
X130775415Y-87883464D01*
X130824653Y-87822209D01*
X130824657Y-87822199D01*
X130826550Y-87819240D01*
X130834705Y-87806093D01*
X130836504Y-87803103D01*
X130836504Y-87803102D01*
X130836507Y-87803099D01*
X130869508Y-87731767D01*
X130904433Y-87661350D01*
X130904433Y-87661346D01*
X130904436Y-87661342D01*
X130905643Y-87658055D01*
X130910759Y-87643525D01*
X130911897Y-87640146D01*
X130911901Y-87640138D01*
X130928796Y-87563378D01*
X130947766Y-87487100D01*
X130947766Y-87487097D01*
X130948240Y-87483619D01*
X130950116Y-87468300D01*
X130950498Y-87464784D01*
X130950500Y-87464779D01*
X130950500Y-87386188D01*
X130952629Y-87307608D01*
X130952628Y-87307605D01*
X130952354Y-87304235D01*
X130950500Y-87284724D01*
X130950500Y-87143091D01*
X130956569Y-87104773D01*
X130962428Y-87086740D01*
X131010674Y-86938256D01*
X131030460Y-86750000D01*
X131010674Y-86561744D01*
X130952179Y-86381716D01*
X130857533Y-86217784D01*
X130730871Y-86077112D01*
X130711800Y-86063256D01*
X130577734Y-85965851D01*
X130577729Y-85965848D01*
X130404807Y-85888857D01*
X130404802Y-85888855D01*
X130259001Y-85857865D01*
X130219646Y-85849500D01*
X130030354Y-85849500D01*
X129997897Y-85856398D01*
X129845197Y-85888855D01*
X129845192Y-85888857D01*
X129672270Y-85965848D01*
X129672265Y-85965851D01*
X129519129Y-86077111D01*
X129392466Y-86217785D01*
X129297821Y-86381715D01*
X129297818Y-86381722D01*
X129239327Y-86561740D01*
X129239326Y-86561744D01*
X129219540Y-86750000D01*
X129239326Y-86938256D01*
X129239326Y-86938258D01*
X129239327Y-86938260D01*
X129253852Y-86982965D01*
X129255847Y-87052806D01*
X129223602Y-87108963D01*
X128934633Y-87397933D01*
X128594385Y-87738181D01*
X128533062Y-87771666D01*
X128506704Y-87774500D01*
X125268295Y-87774500D01*
X125201256Y-87754815D01*
X125180614Y-87738181D01*
X124936819Y-87494385D01*
X124903334Y-87433062D01*
X124900500Y-87406704D01*
X124900500Y-86268091D01*
X124906569Y-86229773D01*
X124910464Y-86217785D01*
X124960674Y-86063256D01*
X124980460Y-85875000D01*
X124960674Y-85686744D01*
X124902179Y-85506716D01*
X124807533Y-85342784D01*
X124680871Y-85202112D01*
X124680870Y-85202111D01*
X124527734Y-85090851D01*
X124527729Y-85090848D01*
X124354807Y-85013857D01*
X124354802Y-85013855D01*
X124209001Y-84982865D01*
X124169646Y-84974500D01*
X123980354Y-84974500D01*
X123947897Y-84981398D01*
X123795197Y-85013855D01*
X123795192Y-85013857D01*
X123622270Y-85090848D01*
X123622265Y-85090851D01*
X123469129Y-85202111D01*
X123342466Y-85342785D01*
X123247821Y-85506715D01*
X123247818Y-85506722D01*
X123189327Y-85686740D01*
X123189326Y-85686744D01*
X123169540Y-85875000D01*
X123189326Y-86063256D01*
X123239536Y-86217785D01*
X123243431Y-86229773D01*
X123249500Y-86268091D01*
X123249500Y-87763923D01*
X123249295Y-87768957D01*
X123244936Y-87822481D01*
X123244937Y-87822490D01*
X123255545Y-87900358D01*
X123264045Y-87978500D01*
X123264779Y-87981832D01*
X123268354Y-87997090D01*
X123269177Y-88000402D01*
X123296282Y-88074180D01*
X123321375Y-88148656D01*
X123322813Y-88151765D01*
X123329597Y-88165922D01*
X123331095Y-88168942D01*
X123373428Y-88235170D01*
X123413950Y-88302517D01*
X123413952Y-88302519D01*
X123413955Y-88302524D01*
X123415989Y-88305200D01*
X123425677Y-88317592D01*
X123427801Y-88320234D01*
X123483366Y-88375800D01*
X123510398Y-88404337D01*
X123537431Y-88432875D01*
X123537436Y-88432878D01*
X123540095Y-88435137D01*
X123555119Y-88447552D01*
X124088711Y-88981144D01*
X124122196Y-89042467D01*
X124117212Y-89112159D01*
X124075340Y-89168092D01*
X124073916Y-89169143D01*
X123994127Y-89227113D01*
X123867465Y-89367785D01*
X123769571Y-89537344D01*
X123766925Y-89535816D01*
X123730397Y-89579006D01*
X123663598Y-89599491D01*
X123662115Y-89599500D01*
X122441519Y-89599500D01*
X122374480Y-89579815D01*
X122353838Y-89563181D01*
X121736819Y-88946162D01*
X121703334Y-88884839D01*
X121700500Y-88858481D01*
X121700500Y-87766019D01*
X121717113Y-87704019D01*
X121752179Y-87643284D01*
X121810674Y-87463256D01*
X121830460Y-87275000D01*
X121810674Y-87086744D01*
X121752179Y-86906716D01*
X121657533Y-86742784D01*
X121530871Y-86602112D01*
X121530870Y-86602111D01*
X121377734Y-86490851D01*
X121377729Y-86490848D01*
X121204807Y-86413857D01*
X121204802Y-86413855D01*
X121053590Y-86381715D01*
X121019646Y-86374500D01*
X120830354Y-86374500D01*
X120797897Y-86381398D01*
X120645197Y-86413855D01*
X120645192Y-86413857D01*
X120472270Y-86490848D01*
X120472265Y-86490851D01*
X120319129Y-86602111D01*
X120192466Y-86742785D01*
X120097821Y-86906715D01*
X120097816Y-86906726D01*
X120082778Y-86953008D01*
X120043340Y-87010683D01*
X119978981Y-87037880D01*
X119910134Y-87025964D01*
X119858659Y-86978719D01*
X119840899Y-86911145D01*
X119841317Y-86903914D01*
X119855659Y-86740000D01*
X119835063Y-86504592D01*
X119773903Y-86276337D01*
X119674035Y-86062171D01*
X119606591Y-85965851D01*
X119538496Y-85868600D01*
X119519396Y-85849500D01*
X119416567Y-85746671D01*
X119383084Y-85685351D01*
X119388068Y-85615659D01*
X119429939Y-85559725D01*
X119460915Y-85542810D01*
X119592331Y-85493796D01*
X119707546Y-85407546D01*
X119793796Y-85292331D01*
X119844091Y-85157483D01*
X119850500Y-85097873D01*
X119850499Y-83302128D01*
X119844091Y-83242517D01*
X119793796Y-83107669D01*
X119793795Y-83107668D01*
X119793793Y-83107664D01*
X119707547Y-82992455D01*
X119707544Y-82992452D01*
X119592335Y-82906206D01*
X119592328Y-82906202D01*
X119457482Y-82855908D01*
X119457483Y-82855908D01*
X119397883Y-82849501D01*
X119397881Y-82849500D01*
X119397873Y-82849500D01*
X119397864Y-82849500D01*
X117602129Y-82849500D01*
X117602123Y-82849501D01*
X117542516Y-82855908D01*
X117407671Y-82906202D01*
X117407664Y-82906206D01*
X117292455Y-82992452D01*
X117292452Y-82992455D01*
X117206206Y-83107664D01*
X117206202Y-83107671D01*
X117155908Y-83242517D01*
X117149501Y-83302116D01*
X117149501Y-83302123D01*
X117149500Y-83302135D01*
X117149500Y-85097870D01*
X117149501Y-85097876D01*
X117155908Y-85157483D01*
X117206202Y-85292328D01*
X117206206Y-85292335D01*
X117292452Y-85407544D01*
X117292455Y-85407547D01*
X117407664Y-85493793D01*
X117407671Y-85493797D01*
X117539081Y-85542810D01*
X117595015Y-85584681D01*
X117619432Y-85650145D01*
X117604580Y-85718418D01*
X117583430Y-85746673D01*
X117461503Y-85868600D01*
X117325965Y-86062169D01*
X117325964Y-86062171D01*
X117226098Y-86276335D01*
X117226094Y-86276344D01*
X117164938Y-86504586D01*
X117164936Y-86504596D01*
X117144341Y-86739999D01*
X117144341Y-86740000D01*
X117164936Y-86975403D01*
X117164938Y-86975413D01*
X117226094Y-87203655D01*
X117226096Y-87203659D01*
X117226097Y-87203663D01*
X117311210Y-87386187D01*
X117325965Y-87417830D01*
X117325967Y-87417834D01*
X117461501Y-87611395D01*
X117461506Y-87611402D01*
X117628597Y-87778493D01*
X117628603Y-87778498D01*
X117814158Y-87908425D01*
X117857783Y-87963002D01*
X117864977Y-88032500D01*
X117833454Y-88094855D01*
X117814158Y-88111575D01*
X117628597Y-88241505D01*
X117461505Y-88408597D01*
X117325965Y-88602169D01*
X117325964Y-88602171D01*
X117226098Y-88816335D01*
X117226094Y-88816344D01*
X117164938Y-89044586D01*
X117164936Y-89044596D01*
X117144341Y-89279999D01*
X117144341Y-89280000D01*
X115012225Y-89280000D01*
X115009489Y-89217342D01*
X115007973Y-89180696D01*
X115000500Y-89000000D01*
X115000500Y-88999500D01*
X115000500Y-85000000D01*
X115009491Y-84782602D01*
X115016647Y-84618723D01*
X115023725Y-84537809D01*
X115045510Y-84363040D01*
X115068838Y-84185857D01*
X115068838Y-84185856D01*
X115079335Y-84126323D01*
X115117209Y-83945691D01*
X115158563Y-83759163D01*
X115168030Y-83723834D01*
X115224108Y-83535470D01*
X115285130Y-83341934D01*
X115286574Y-83337963D01*
X115287773Y-83334670D01*
X115365495Y-83135483D01*
X115381473Y-83096909D01*
X115443475Y-82947226D01*
X115445021Y-82943796D01*
X115540282Y-82748937D01*
X115634513Y-82567923D01*
X115636178Y-82564939D01*
X115747213Y-82378598D01*
X115856947Y-82206349D01*
X115858743Y-82203687D01*
X115984851Y-82027061D01*
X116022122Y-81978488D01*
X116109297Y-81864879D01*
X116111109Y-81862632D01*
X116251465Y-81696913D01*
X116257363Y-81690476D01*
X116390541Y-81545137D01*
X116545127Y-81390551D01*
X116696913Y-81251465D01*
X116862631Y-81111109D01*
X116864876Y-81109300D01*
X117027054Y-80984856D01*
X117203687Y-80858742D01*
X117206339Y-80856953D01*
X117244707Y-80832510D01*
X117378601Y-80747212D01*
X117378628Y-80747196D01*
X117564939Y-80636178D01*
X117567944Y-80634502D01*
X117748969Y-80540266D01*
X117943796Y-80445021D01*
X117947226Y-80443475D01*
X118096909Y-80381473D01*
X118135483Y-80365495D01*
X118334690Y-80287765D01*
X118337963Y-80286574D01*
X118341934Y-80285130D01*
X118535447Y-80224115D01*
X118634880Y-80194512D01*
X118723834Y-80168030D01*
X118738462Y-80164109D01*
X118759175Y-80158559D01*
X118866670Y-80134728D01*
X118945662Y-80117215D01*
X119126346Y-80079330D01*
X119185858Y-80068837D01*
X119324658Y-80050563D01*
X119363039Y-80045510D01*
X119537826Y-80023723D01*
X119596378Y-80018601D01*
X119618722Y-80016647D01*
X119708748Y-80012715D01*
X119782277Y-80009505D01*
X120000000Y-80000500D01*
X120000500Y-80000500D01*
X126999500Y-80000500D01*
X127000000Y-80000500D01*
X127217529Y-80009497D01*
G37*
%TD.AperFunction*%
M02*
