%TF.GenerationSoftware,KiCad,Pcbnew,7.0.9*%
%TF.CreationDate,2024-07-21T15:20:36+08:00*%
%TF.ProjectId,DC-DC boost,44432d44-4320-4626-9f6f-73742e6b6963,rev?*%
%TF.SameCoordinates,Original*%
%TF.FileFunction,Legend,Top*%
%TF.FilePolarity,Positive*%
%FSLAX46Y46*%
G04 Gerber Fmt 4.6, Leading zero omitted, Abs format (unit mm)*
G04 Created by KiCad (PCBNEW 7.0.9) date 2024-07-21 15:20:36*
%MOMM*%
%LPD*%
G01*
G04 APERTURE LIST*
%ADD10C,0.150000*%
%ADD11C,0.125000*%
%ADD12C,0.120000*%
G04 APERTURE END LIST*
D10*
X115505826Y-84193771D02*
X115705826Y-84793771D01*
X115705826Y-84793771D02*
X115905826Y-84193771D01*
X116191541Y-84793771D02*
X116134398Y-84765200D01*
X116134398Y-84765200D02*
X116105827Y-84736628D01*
X116105827Y-84736628D02*
X116077255Y-84679485D01*
X116077255Y-84679485D02*
X116077255Y-84508057D01*
X116077255Y-84508057D02*
X116105827Y-84450914D01*
X116105827Y-84450914D02*
X116134398Y-84422342D01*
X116134398Y-84422342D02*
X116191541Y-84393771D01*
X116191541Y-84393771D02*
X116277255Y-84393771D01*
X116277255Y-84393771D02*
X116334398Y-84422342D01*
X116334398Y-84422342D02*
X116362970Y-84450914D01*
X116362970Y-84450914D02*
X116391541Y-84508057D01*
X116391541Y-84508057D02*
X116391541Y-84679485D01*
X116391541Y-84679485D02*
X116362970Y-84736628D01*
X116362970Y-84736628D02*
X116334398Y-84765200D01*
X116334398Y-84765200D02*
X116277255Y-84793771D01*
X116277255Y-84793771D02*
X116191541Y-84793771D01*
X116905827Y-84393771D02*
X116905827Y-84793771D01*
X116648684Y-84393771D02*
X116648684Y-84708057D01*
X116648684Y-84708057D02*
X116677255Y-84765200D01*
X116677255Y-84765200D02*
X116734398Y-84793771D01*
X116734398Y-84793771D02*
X116820112Y-84793771D01*
X116820112Y-84793771D02*
X116877255Y-84765200D01*
X116877255Y-84765200D02*
X116905827Y-84736628D01*
X117105826Y-84393771D02*
X117334398Y-84393771D01*
X117191541Y-84193771D02*
X117191541Y-84708057D01*
X117191541Y-84708057D02*
X117220112Y-84765200D01*
X117220112Y-84765200D02*
X117277255Y-84793771D01*
X117277255Y-84793771D02*
X117334398Y-84793771D01*
X115830826Y-89022342D02*
X115773684Y-88993771D01*
X115773684Y-88993771D02*
X115687969Y-88993771D01*
X115687969Y-88993771D02*
X115602255Y-89022342D01*
X115602255Y-89022342D02*
X115545112Y-89079485D01*
X115545112Y-89079485D02*
X115516541Y-89136628D01*
X115516541Y-89136628D02*
X115487969Y-89250914D01*
X115487969Y-89250914D02*
X115487969Y-89336628D01*
X115487969Y-89336628D02*
X115516541Y-89450914D01*
X115516541Y-89450914D02*
X115545112Y-89508057D01*
X115545112Y-89508057D02*
X115602255Y-89565200D01*
X115602255Y-89565200D02*
X115687969Y-89593771D01*
X115687969Y-89593771D02*
X115745112Y-89593771D01*
X115745112Y-89593771D02*
X115830826Y-89565200D01*
X115830826Y-89565200D02*
X115859398Y-89536628D01*
X115859398Y-89536628D02*
X115859398Y-89336628D01*
X115859398Y-89336628D02*
X115745112Y-89336628D01*
X116116541Y-89593771D02*
X116116541Y-88993771D01*
X116116541Y-88993771D02*
X116459398Y-89593771D01*
X116459398Y-89593771D02*
X116459398Y-88993771D01*
X116745112Y-89593771D02*
X116745112Y-88993771D01*
X116745112Y-88993771D02*
X116887969Y-88993771D01*
X116887969Y-88993771D02*
X116973683Y-89022342D01*
X116973683Y-89022342D02*
X117030826Y-89079485D01*
X117030826Y-89079485D02*
X117059397Y-89136628D01*
X117059397Y-89136628D02*
X117087969Y-89250914D01*
X117087969Y-89250914D02*
X117087969Y-89336628D01*
X117087969Y-89336628D02*
X117059397Y-89450914D01*
X117059397Y-89450914D02*
X117030826Y-89508057D01*
X117030826Y-89508057D02*
X116973683Y-89565200D01*
X116973683Y-89565200D02*
X116887969Y-89593771D01*
X116887969Y-89593771D02*
X116745112Y-89593771D01*
X115505826Y-86618771D02*
X115705826Y-87218771D01*
X115705826Y-87218771D02*
X115905826Y-86618771D01*
X116105827Y-87218771D02*
X116105827Y-86818771D01*
X116105827Y-86618771D02*
X116077255Y-86647342D01*
X116077255Y-86647342D02*
X116105827Y-86675914D01*
X116105827Y-86675914D02*
X116134398Y-86647342D01*
X116134398Y-86647342D02*
X116105827Y-86618771D01*
X116105827Y-86618771D02*
X116105827Y-86675914D01*
X116391541Y-86818771D02*
X116391541Y-87218771D01*
X116391541Y-86875914D02*
X116420112Y-86847342D01*
X116420112Y-86847342D02*
X116477255Y-86818771D01*
X116477255Y-86818771D02*
X116562969Y-86818771D01*
X116562969Y-86818771D02*
X116620112Y-86847342D01*
X116620112Y-86847342D02*
X116648684Y-86904485D01*
X116648684Y-86904485D02*
X116648684Y-87218771D01*
D11*
X123016666Y-88802190D02*
X122992857Y-88826000D01*
X122992857Y-88826000D02*
X122921428Y-88849809D01*
X122921428Y-88849809D02*
X122873809Y-88849809D01*
X122873809Y-88849809D02*
X122802381Y-88826000D01*
X122802381Y-88826000D02*
X122754762Y-88778380D01*
X122754762Y-88778380D02*
X122730952Y-88730761D01*
X122730952Y-88730761D02*
X122707143Y-88635523D01*
X122707143Y-88635523D02*
X122707143Y-88564095D01*
X122707143Y-88564095D02*
X122730952Y-88468857D01*
X122730952Y-88468857D02*
X122754762Y-88421238D01*
X122754762Y-88421238D02*
X122802381Y-88373619D01*
X122802381Y-88373619D02*
X122873809Y-88349809D01*
X122873809Y-88349809D02*
X122921428Y-88349809D01*
X122921428Y-88349809D02*
X122992857Y-88373619D01*
X122992857Y-88373619D02*
X123016666Y-88397428D01*
X123207143Y-88397428D02*
X123230952Y-88373619D01*
X123230952Y-88373619D02*
X123278571Y-88349809D01*
X123278571Y-88349809D02*
X123397619Y-88349809D01*
X123397619Y-88349809D02*
X123445238Y-88373619D01*
X123445238Y-88373619D02*
X123469047Y-88397428D01*
X123469047Y-88397428D02*
X123492857Y-88445047D01*
X123492857Y-88445047D02*
X123492857Y-88492666D01*
X123492857Y-88492666D02*
X123469047Y-88564095D01*
X123469047Y-88564095D02*
X123183333Y-88849809D01*
X123183333Y-88849809D02*
X123492857Y-88849809D01*
X123016666Y-87227190D02*
X122992857Y-87251000D01*
X122992857Y-87251000D02*
X122921428Y-87274809D01*
X122921428Y-87274809D02*
X122873809Y-87274809D01*
X122873809Y-87274809D02*
X122802381Y-87251000D01*
X122802381Y-87251000D02*
X122754762Y-87203380D01*
X122754762Y-87203380D02*
X122730952Y-87155761D01*
X122730952Y-87155761D02*
X122707143Y-87060523D01*
X122707143Y-87060523D02*
X122707143Y-86989095D01*
X122707143Y-86989095D02*
X122730952Y-86893857D01*
X122730952Y-86893857D02*
X122754762Y-86846238D01*
X122754762Y-86846238D02*
X122802381Y-86798619D01*
X122802381Y-86798619D02*
X122873809Y-86774809D01*
X122873809Y-86774809D02*
X122921428Y-86774809D01*
X122921428Y-86774809D02*
X122992857Y-86798619D01*
X122992857Y-86798619D02*
X123016666Y-86822428D01*
X123492857Y-87274809D02*
X123207143Y-87274809D01*
X123350000Y-87274809D02*
X123350000Y-86774809D01*
X123350000Y-86774809D02*
X123302381Y-86846238D01*
X123302381Y-86846238D02*
X123254762Y-86893857D01*
X123254762Y-86893857D02*
X123207143Y-86917666D01*
X123016666Y-83877190D02*
X122992857Y-83901000D01*
X122992857Y-83901000D02*
X122921428Y-83924809D01*
X122921428Y-83924809D02*
X122873809Y-83924809D01*
X122873809Y-83924809D02*
X122802381Y-83901000D01*
X122802381Y-83901000D02*
X122754762Y-83853380D01*
X122754762Y-83853380D02*
X122730952Y-83805761D01*
X122730952Y-83805761D02*
X122707143Y-83710523D01*
X122707143Y-83710523D02*
X122707143Y-83639095D01*
X122707143Y-83639095D02*
X122730952Y-83543857D01*
X122730952Y-83543857D02*
X122754762Y-83496238D01*
X122754762Y-83496238D02*
X122802381Y-83448619D01*
X122802381Y-83448619D02*
X122873809Y-83424809D01*
X122873809Y-83424809D02*
X122921428Y-83424809D01*
X122921428Y-83424809D02*
X122992857Y-83448619D01*
X122992857Y-83448619D02*
X123016666Y-83472428D01*
X123183333Y-83424809D02*
X123492857Y-83424809D01*
X123492857Y-83424809D02*
X123326190Y-83615285D01*
X123326190Y-83615285D02*
X123397619Y-83615285D01*
X123397619Y-83615285D02*
X123445238Y-83639095D01*
X123445238Y-83639095D02*
X123469047Y-83662904D01*
X123469047Y-83662904D02*
X123492857Y-83710523D01*
X123492857Y-83710523D02*
X123492857Y-83829571D01*
X123492857Y-83829571D02*
X123469047Y-83877190D01*
X123469047Y-83877190D02*
X123445238Y-83901000D01*
X123445238Y-83901000D02*
X123397619Y-83924809D01*
X123397619Y-83924809D02*
X123254762Y-83924809D01*
X123254762Y-83924809D02*
X123207143Y-83901000D01*
X123207143Y-83901000D02*
X123183333Y-83877190D01*
X123016666Y-85577190D02*
X122992857Y-85601000D01*
X122992857Y-85601000D02*
X122921428Y-85624809D01*
X122921428Y-85624809D02*
X122873809Y-85624809D01*
X122873809Y-85624809D02*
X122802381Y-85601000D01*
X122802381Y-85601000D02*
X122754762Y-85553380D01*
X122754762Y-85553380D02*
X122730952Y-85505761D01*
X122730952Y-85505761D02*
X122707143Y-85410523D01*
X122707143Y-85410523D02*
X122707143Y-85339095D01*
X122707143Y-85339095D02*
X122730952Y-85243857D01*
X122730952Y-85243857D02*
X122754762Y-85196238D01*
X122754762Y-85196238D02*
X122802381Y-85148619D01*
X122802381Y-85148619D02*
X122873809Y-85124809D01*
X122873809Y-85124809D02*
X122921428Y-85124809D01*
X122921428Y-85124809D02*
X122992857Y-85148619D01*
X122992857Y-85148619D02*
X123016666Y-85172428D01*
X123445238Y-85291476D02*
X123445238Y-85624809D01*
X123326190Y-85101000D02*
X123207143Y-85458142D01*
X123207143Y-85458142D02*
X123516666Y-85458142D01*
D12*
%TO.C,FTC252012S1R5MBCA1*%
X127013748Y-83490000D02*
X127536252Y-83490000D01*
X127013748Y-85710000D02*
X127536252Y-85710000D01*
%TO.C,C2*%
X122787836Y-89760000D02*
X122572164Y-89760000D01*
X122787836Y-89040000D02*
X122572164Y-89040000D01*
%TO.C,J1*%
X117170000Y-82870000D02*
X118500000Y-82870000D01*
X117170000Y-84200000D02*
X117170000Y-82870000D01*
X117170000Y-85470000D02*
X117170000Y-90610000D01*
X117170000Y-85470000D02*
X119830000Y-85470000D01*
X117170000Y-90610000D02*
X119830000Y-90610000D01*
X119830000Y-85470000D02*
X119830000Y-90610000D01*
%TO.C,C1*%
X122787836Y-88160000D02*
X122572164Y-88160000D01*
X122787836Y-87440000D02*
X122572164Y-87440000D01*
%TO.C,C3*%
X122787836Y-84860000D02*
X122572164Y-84860000D01*
X122787836Y-84140000D02*
X122572164Y-84140000D01*
%TO.C,C4*%
X122572164Y-85840000D02*
X122787836Y-85840000D01*
X122572164Y-86560000D02*
X122787836Y-86560000D01*
%TO.C,U1*%
X125890000Y-87425000D02*
X125890000Y-89925000D01*
X128610000Y-88675000D02*
X128610000Y-89925000D01*
%TD*%
M02*
