%TF.GenerationSoftware,KiCad,Pcbnew,7.0.9*%
%TF.CreationDate,2024-07-21T15:20:36+08:00*%
%TF.ProjectId,DC-DC boost,44432d44-4320-4626-9f6f-73742e6b6963,rev?*%
%TF.SameCoordinates,Original*%
%TF.FileFunction,Copper,L1,Top*%
%TF.FilePolarity,Positive*%
%FSLAX46Y46*%
G04 Gerber Fmt 4.6, Leading zero omitted, Abs format (unit mm)*
G04 Created by KiCad (PCBNEW 7.0.9) date 2024-07-21 15:20:36*
%MOMM*%
%LPD*%
G01*
G04 APERTURE LIST*
G04 Aperture macros list*
%AMRoundRect*
0 Rectangle with rounded corners*
0 $1 Rounding radius*
0 $2 $3 $4 $5 $6 $7 $8 $9 X,Y pos of 4 corners*
0 Add a 4 corners polygon primitive as box body*
4,1,4,$2,$3,$4,$5,$6,$7,$8,$9,$2,$3,0*
0 Add four circle primitives for the rounded corners*
1,1,$1+$1,$2,$3*
1,1,$1+$1,$4,$5*
1,1,$1+$1,$6,$7*
1,1,$1+$1,$8,$9*
0 Add four rect primitives between the rounded corners*
20,1,$1+$1,$2,$3,$4,$5,0*
20,1,$1+$1,$4,$5,$6,$7,0*
20,1,$1+$1,$6,$7,$8,$9,0*
20,1,$1+$1,$8,$9,$2,$3,0*%
G04 Aperture macros list end*
%TA.AperFunction,SMDPad,CuDef*%
%ADD10RoundRect,0.250000X-0.375000X-0.850000X0.375000X-0.850000X0.375000X0.850000X-0.375000X0.850000X0*%
%TD*%
%TA.AperFunction,SMDPad,CuDef*%
%ADD11RoundRect,0.140000X0.140000X0.170000X-0.140000X0.170000X-0.140000X-0.170000X0.140000X-0.170000X0*%
%TD*%
%TA.AperFunction,ComponentPad*%
%ADD12R,1.700000X1.700000*%
%TD*%
%TA.AperFunction,ComponentPad*%
%ADD13O,1.700000X1.700000*%
%TD*%
%TA.AperFunction,SMDPad,CuDef*%
%ADD14RoundRect,0.140000X-0.140000X-0.170000X0.140000X-0.170000X0.140000X0.170000X-0.140000X0.170000X0*%
%TD*%
%TA.AperFunction,SMDPad,CuDef*%
%ADD15RoundRect,0.062500X-0.062500X0.350000X-0.062500X-0.350000X0.062500X-0.350000X0.062500X0.350000X0*%
%TD*%
%TA.AperFunction,SMDPad,CuDef*%
%ADD16R,2.000000X1.200000*%
%TD*%
%TA.AperFunction,ViaPad*%
%ADD17C,0.800000*%
%TD*%
%TA.AperFunction,Conductor*%
%ADD18C,0.500000*%
%TD*%
%TA.AperFunction,Conductor*%
%ADD19C,0.250000*%
%TD*%
%TA.AperFunction,Conductor*%
%ADD20C,0.650000*%
%TD*%
%TA.AperFunction,Conductor*%
%ADD21C,0.400000*%
%TD*%
G04 APERTURE END LIST*
D10*
%TO.P,FTC252012S1R5MBCA1,1,1*%
%TO.N,Net-(U1-L1)*%
X126200000Y-84600000D03*
%TO.P,FTC252012S1R5MBCA1,2,2*%
%TO.N,Net-(U1-L2)*%
X128350000Y-84600000D03*
%TD*%
D11*
%TO.P,C2,1*%
%TO.N,Net-(U1-EN)*%
X123160000Y-89400000D03*
%TO.P,C2,2*%
%TO.N,Net-(J1-Pin_3)*%
X122200000Y-89400000D03*
%TD*%
D12*
%TO.P,J1,1,Pin_1*%
%TO.N,Net-(J1-Pin_1)*%
X118500000Y-84200000D03*
D13*
%TO.P,J1,2,Pin_2*%
%TO.N,Net-(J1-Pin_2)*%
X118500000Y-86740000D03*
%TO.P,J1,3,Pin_3*%
%TO.N,Net-(J1-Pin_3)*%
X118500000Y-89280000D03*
%TD*%
D11*
%TO.P,C1,1*%
%TO.N,Net-(J1-Pin_2)*%
X123160000Y-87800000D03*
%TO.P,C1,2*%
%TO.N,Net-(J1-Pin_3)*%
X122200000Y-87800000D03*
%TD*%
%TO.P,C3,1*%
%TO.N,Net-(J1-Pin_1)*%
X123160000Y-84500000D03*
%TO.P,C3,2*%
%TO.N,Net-(C3-Pad2)*%
X122200000Y-84500000D03*
%TD*%
D14*
%TO.P,C4,1*%
%TO.N,Net-(C3-Pad2)*%
X122200000Y-86200000D03*
%TO.P,C4,2*%
%TO.N,Net-(J1-Pin_3)*%
X123160000Y-86200000D03*
%TD*%
D15*
%TO.P,U1,1,VOUT*%
%TO.N,Net-(J1-Pin_1)*%
X128250000Y-87462500D03*
%TO.P,U1,2,L2*%
%TO.N,Net-(U1-L2)*%
X127750000Y-87462500D03*
%TO.P,U1,3,PGND*%
%TO.N,Net-(J1-Pin_3)*%
X127250000Y-87462500D03*
%TO.P,U1,4,L1*%
%TO.N,Net-(U1-L1)*%
X126750000Y-87462500D03*
%TO.P,U1,5,VIN*%
%TO.N,Net-(J1-Pin_2)*%
X126250000Y-87462500D03*
%TO.P,U1,6,EN*%
%TO.N,Net-(U1-EN)*%
X126250000Y-89887500D03*
%TO.P,U1,7,PS/SYNC*%
X126750000Y-89887500D03*
%TO.P,U1,8,VINA*%
X127250000Y-89887500D03*
%TO.P,U1,9,GND*%
%TO.N,Net-(J1-Pin_3)*%
X127750000Y-89887500D03*
%TO.P,U1,10,FB*%
%TO.N,Net-(J1-Pin_1)*%
X128250000Y-89887500D03*
D16*
%TO.P,U1,11,PGND*%
%TO.N,Net-(J1-Pin_3)*%
X127250000Y-88675000D03*
%TD*%
D17*
%TO.N,Net-(J1-Pin_1)*%
X124075000Y-85875000D03*
X130125000Y-86750000D03*
%TO.N,Net-(J1-Pin_2)*%
X124600000Y-89900000D03*
X120925000Y-87275000D03*
%TD*%
D18*
%TO.N,Net-(U1-L2)*%
X128070000Y-85505000D02*
X127750000Y-85825000D01*
X127750000Y-85825000D02*
X127750000Y-87462500D01*
X128070000Y-83725000D02*
X128070000Y-85505000D01*
%TO.N,Net-(U1-L1)*%
X125920000Y-85070000D02*
X126750000Y-85900000D01*
X125920000Y-83725000D02*
X125920000Y-85070000D01*
X126750000Y-85900000D02*
X126750000Y-87462500D01*
D19*
%TO.N,Net-(U1-EN)*%
X126250000Y-90800000D02*
X126750000Y-90299999D01*
X123160000Y-90310000D02*
X123160000Y-89400000D01*
X126750000Y-89887500D02*
X126250000Y-89887500D01*
X123650000Y-90800000D02*
X123160000Y-90310000D01*
X126750000Y-90299999D02*
X126750000Y-89887500D01*
X123650000Y-90800000D02*
X126250000Y-90800000D01*
X127250000Y-89887500D02*
X126750000Y-89887500D01*
%TO.N,Net-(C3-Pad2)*%
X122200000Y-86200000D02*
X122200000Y-84500000D01*
D20*
%TO.N,Net-(J1-Pin_1)*%
X128400000Y-87312500D02*
X128400000Y-87462500D01*
X118400000Y-83935000D02*
X119815000Y-83935000D01*
X119815000Y-83935000D02*
X120255000Y-83495000D01*
X128962500Y-86750000D02*
X128400000Y-87312500D01*
X122559999Y-83495000D02*
X123682500Y-84617500D01*
X130125000Y-86750000D02*
X128962500Y-86750000D01*
X124075000Y-85010001D02*
X124075000Y-85875000D01*
X122250000Y-83495000D02*
X122559999Y-83495000D01*
X120255000Y-83495000D02*
X122250000Y-83495000D01*
X123682500Y-84617500D02*
X124075000Y-85010001D01*
D21*
%TO.N,Net-(J1-Pin_2)*%
X118400000Y-86475000D02*
X120125000Y-86475000D01*
X125600000Y-86500000D02*
X126100000Y-87000000D01*
X124600000Y-89900000D02*
X124600000Y-86900000D01*
X125000000Y-86500000D02*
X125600000Y-86500000D01*
X126100000Y-87000000D02*
X126100000Y-87462500D01*
X120125000Y-86475000D02*
X120925000Y-87275000D01*
X124600000Y-86900000D02*
X125000000Y-86500000D01*
D20*
%TO.N,Net-(J1-Pin_3)*%
X128650000Y-88675000D02*
X129325000Y-89350000D01*
D19*
X121300000Y-89400000D02*
X120900000Y-89000000D01*
D20*
X129325000Y-90825000D02*
X128100000Y-92050000D01*
D19*
X123160000Y-86840000D02*
X123160000Y-86200000D01*
D20*
X127250000Y-88675000D02*
X128650000Y-88675000D01*
D19*
X122500000Y-87000000D02*
X123000000Y-87000000D01*
D20*
X128100000Y-92050000D02*
X119850000Y-92050000D01*
D19*
X123000000Y-87000000D02*
X123160000Y-86840000D01*
X120900000Y-89000000D02*
X120885000Y-89015000D01*
D20*
X119850000Y-92050000D02*
X118400000Y-90600000D01*
X129325000Y-89350000D02*
X129325000Y-90825000D01*
D19*
X122200000Y-87800000D02*
X122200000Y-87300000D01*
X122200000Y-87300000D02*
X122500000Y-87000000D01*
D20*
X118400000Y-90600000D02*
X118400000Y-89015000D01*
D19*
X127750000Y-89175000D02*
X127250000Y-88675000D01*
D21*
X127750000Y-89887500D02*
X127750000Y-89175000D01*
D19*
X122200000Y-89400000D02*
X121300000Y-89400000D01*
X120885000Y-89015000D02*
X118400000Y-89015000D01*
X122200000Y-89400000D02*
X122200000Y-87800000D01*
X127250000Y-87462500D02*
X127250000Y-88675000D01*
%TD*%
%TA.AperFunction,Conductor*%
%TO.N,Net-(J1-Pin_3)*%
G36*
X127000995Y-80000541D02*
G01*
X127024393Y-80001508D01*
X127539239Y-80033376D01*
X127540707Y-80033512D01*
X127636782Y-80045488D01*
X127814127Y-80068835D01*
X127873690Y-80079338D01*
X128054283Y-80117204D01*
X128138541Y-80135884D01*
X128240829Y-80158561D01*
X128248408Y-80160592D01*
X128276173Y-80168033D01*
X128369361Y-80195775D01*
X128464559Y-80224117D01*
X128518969Y-80241272D01*
X128658071Y-80285132D01*
X128665330Y-80287773D01*
X128864496Y-80365488D01*
X129053834Y-80443916D01*
X129055217Y-80444539D01*
X129250991Y-80540247D01*
X129432954Y-80634971D01*
X129432958Y-80634973D01*
X129434186Y-80635658D01*
X129528913Y-80692102D01*
X129621387Y-80747205D01*
X129794476Y-80857474D01*
X129794482Y-80857478D01*
X129795551Y-80858199D01*
X129972924Y-80984841D01*
X130135842Y-81109853D01*
X130136736Y-81110574D01*
X130303061Y-81251444D01*
X130454895Y-81390574D01*
X130609424Y-81545103D01*
X130748556Y-81696939D01*
X130889422Y-81863259D01*
X130890141Y-81864151D01*
X131015156Y-82027074D01*
X131015171Y-82027093D01*
X131141792Y-82204438D01*
X131142515Y-82205511D01*
X131252802Y-82378625D01*
X131364330Y-82565792D01*
X131365015Y-82567020D01*
X131459759Y-82749022D01*
X131555454Y-82944771D01*
X131556078Y-82946156D01*
X131634532Y-83135556D01*
X131699616Y-83302353D01*
X131712215Y-83334640D01*
X131714867Y-83341929D01*
X131775908Y-83535527D01*
X131831956Y-83723785D01*
X131841436Y-83759162D01*
X131841436Y-83759163D01*
X131882821Y-83945841D01*
X131920659Y-84126298D01*
X131931161Y-84185856D01*
X131954524Y-84363325D01*
X131976271Y-84537784D01*
X131983352Y-84618723D01*
X131990520Y-84782894D01*
X131999500Y-85000000D01*
X131999500Y-86676049D01*
X131997749Y-89042312D01*
X131990521Y-89217082D01*
X131983352Y-89381276D01*
X131976270Y-89462218D01*
X131954527Y-89636656D01*
X131931161Y-89814143D01*
X131920658Y-89873707D01*
X131882825Y-90054139D01*
X131841436Y-90240836D01*
X131831957Y-90276207D01*
X131775914Y-90464454D01*
X131714867Y-90658072D01*
X131712207Y-90665376D01*
X131634539Y-90864425D01*
X131556076Y-91053847D01*
X131555452Y-91055232D01*
X131459767Y-91250960D01*
X131365011Y-91432984D01*
X131364326Y-91434212D01*
X131252811Y-91621359D01*
X131142509Y-91794496D01*
X131141786Y-91795568D01*
X131015181Y-91972891D01*
X130890156Y-92135829D01*
X130889414Y-92136749D01*
X130748567Y-92303047D01*
X130609413Y-92454907D01*
X130454907Y-92609413D01*
X130303047Y-92748567D01*
X130136749Y-92889414D01*
X130135829Y-92890156D01*
X129972891Y-93015181D01*
X129795568Y-93141786D01*
X129794496Y-93142509D01*
X129621359Y-93252811D01*
X129434212Y-93364326D01*
X129432984Y-93365011D01*
X129250960Y-93459767D01*
X129055232Y-93555452D01*
X129053847Y-93556076D01*
X128864425Y-93634539D01*
X128665376Y-93712207D01*
X128658072Y-93714867D01*
X128464454Y-93775914D01*
X128276207Y-93831957D01*
X128240836Y-93841436D01*
X128054139Y-93882825D01*
X127873707Y-93920658D01*
X127814143Y-93931161D01*
X127636656Y-93954527D01*
X127462218Y-93976270D01*
X127381276Y-93983352D01*
X127217094Y-93990520D01*
X127000000Y-93999500D01*
X120000000Y-93999500D01*
X119782894Y-93990520D01*
X119618723Y-93983352D01*
X119537784Y-93976271D01*
X119363325Y-93954524D01*
X119233865Y-93937481D01*
X119185858Y-93931161D01*
X119155790Y-93925859D01*
X119126293Y-93920658D01*
X118945841Y-93882821D01*
X118759163Y-93841436D01*
X118723789Y-93831957D01*
X118669468Y-93815784D01*
X118535527Y-93775908D01*
X118341929Y-93714867D01*
X118336200Y-93712782D01*
X118334632Y-93712211D01*
X118206985Y-93662404D01*
X118135556Y-93634532D01*
X117946156Y-93556078D01*
X117944771Y-93555454D01*
X117749022Y-93459759D01*
X117567020Y-93365015D01*
X117565804Y-93364337D01*
X117378625Y-93252802D01*
X117205511Y-93142515D01*
X117204438Y-93141792D01*
X117027087Y-93015166D01*
X116990397Y-92987013D01*
X116896554Y-92915005D01*
X116793314Y-92830180D01*
X116729606Y-92776224D01*
X116696933Y-92748551D01*
X116545103Y-92609424D01*
X116390574Y-92454895D01*
X116251444Y-92303061D01*
X116110574Y-92136736D01*
X116109853Y-92135842D01*
X115984832Y-91972911D01*
X115858202Y-91795555D01*
X115857487Y-91794496D01*
X115747194Y-91621369D01*
X115635658Y-91434186D01*
X115634973Y-91432958D01*
X115540248Y-91250993D01*
X115444539Y-91055217D01*
X115443916Y-91053834D01*
X115365488Y-90864496D01*
X115287773Y-90665330D01*
X115285132Y-90658071D01*
X115230638Y-90485239D01*
X115224117Y-90464559D01*
X115187069Y-90340117D01*
X115168033Y-90276173D01*
X115158563Y-90240836D01*
X115117206Y-90054291D01*
X115079338Y-89873690D01*
X115068835Y-89814122D01*
X115063928Y-89776852D01*
X115057713Y-89729644D01*
X115045487Y-89636770D01*
X115032178Y-89530000D01*
X117169363Y-89530000D01*
X117226566Y-89743483D01*
X117226568Y-89743488D01*
X117326398Y-89957577D01*
X117326405Y-89957589D01*
X117461885Y-90151072D01*
X117461891Y-90151079D01*
X117628920Y-90318108D01*
X117628927Y-90318114D01*
X117822410Y-90453594D01*
X117822422Y-90453601D01*
X118036511Y-90553431D01*
X118036516Y-90553433D01*
X118250000Y-90610634D01*
X118250000Y-89715501D01*
X118357685Y-89764680D01*
X118464237Y-89780000D01*
X118535763Y-89780000D01*
X118642315Y-89764680D01*
X118750000Y-89715501D01*
X118750000Y-90610634D01*
X118963483Y-90553433D01*
X118963488Y-90553431D01*
X119177577Y-90453601D01*
X119177589Y-90453594D01*
X119371072Y-90318114D01*
X119371079Y-90318108D01*
X119538108Y-90151079D01*
X119538114Y-90151072D01*
X119673594Y-89957589D01*
X119673601Y-89957577D01*
X119773431Y-89743488D01*
X119773433Y-89743483D01*
X119798482Y-89650000D01*
X121421210Y-89650000D01*
X121422854Y-89670913D01*
X121467969Y-89826198D01*
X121550277Y-89965373D01*
X121550281Y-89965378D01*
X121664621Y-90079718D01*
X121664626Y-90079722D01*
X121803802Y-90162031D01*
X121949999Y-90204505D01*
X121950000Y-90204504D01*
X121950000Y-89650000D01*
X121421210Y-89650000D01*
X119798482Y-89650000D01*
X119830636Y-89530000D01*
X118933686Y-89530000D01*
X118959493Y-89489844D01*
X119000000Y-89351889D01*
X119000000Y-89208111D01*
X118982937Y-89149999D01*
X121421208Y-89149999D01*
X121421209Y-89150000D01*
X121950000Y-89150000D01*
X121950000Y-88050000D01*
X121421210Y-88050000D01*
X121422854Y-88070913D01*
X121467969Y-88226198D01*
X121550277Y-88365373D01*
X121550281Y-88365378D01*
X121664621Y-88479718D01*
X121664626Y-88479722D01*
X121796688Y-88557824D01*
X121819206Y-88587814D01*
X121813921Y-88624943D01*
X121796688Y-88642176D01*
X121664626Y-88720277D01*
X121664621Y-88720281D01*
X121550281Y-88834621D01*
X121550277Y-88834626D01*
X121467969Y-88973801D01*
X121422854Y-89129085D01*
X121422854Y-89129086D01*
X121421208Y-89149999D01*
X118982937Y-89149999D01*
X118959493Y-89070156D01*
X118933686Y-89030000D01*
X119830636Y-89030000D01*
X119830636Y-89029999D01*
X119773433Y-88816516D01*
X119773432Y-88816511D01*
X119673601Y-88602423D01*
X119673594Y-88602411D01*
X119538114Y-88408927D01*
X119538108Y-88408920D01*
X119371079Y-88241891D01*
X119371072Y-88241885D01*
X119177589Y-88106405D01*
X119177577Y-88106398D01*
X118963488Y-88006568D01*
X118963483Y-88006566D01*
X118750000Y-87949363D01*
X118750000Y-88844498D01*
X118642315Y-88795320D01*
X118535763Y-88780000D01*
X118464237Y-88780000D01*
X118357685Y-88795320D01*
X118250000Y-88844498D01*
X118250000Y-87949363D01*
X118249999Y-87949363D01*
X118036516Y-88006566D01*
X118036511Y-88006567D01*
X117822423Y-88106398D01*
X117822411Y-88106405D01*
X117628927Y-88241885D01*
X117628920Y-88241891D01*
X117461891Y-88408920D01*
X117461885Y-88408927D01*
X117326405Y-88602411D01*
X117326398Y-88602423D01*
X117226567Y-88816511D01*
X117226566Y-88816516D01*
X117169363Y-89029999D01*
X117169364Y-89030000D01*
X118066314Y-89030000D01*
X118040507Y-89070156D01*
X118000000Y-89208111D01*
X118000000Y-89351889D01*
X118040507Y-89489844D01*
X118066314Y-89530000D01*
X117169363Y-89530000D01*
X115032178Y-89530000D01*
X115023725Y-89462188D01*
X115016743Y-89382373D01*
X115016647Y-89381276D01*
X115009489Y-89217342D01*
X115009478Y-89217082D01*
X115000500Y-89000000D01*
X115000500Y-88999500D01*
X115000500Y-86740000D01*
X117444417Y-86740000D01*
X117464700Y-86945934D01*
X117524768Y-87143954D01*
X117622315Y-87326450D01*
X117753590Y-87486410D01*
X117913550Y-87617685D01*
X118096046Y-87715232D01*
X118294066Y-87775300D01*
X118500000Y-87795583D01*
X118705934Y-87775300D01*
X118903954Y-87715232D01*
X119086450Y-87617685D01*
X119246410Y-87486410D01*
X119377685Y-87326450D01*
X119475232Y-87143954D01*
X119535300Y-86945934D01*
X119537884Y-86919696D01*
X119555563Y-86886622D01*
X119586648Y-86875500D01*
X119938811Y-86875500D01*
X119973459Y-86889852D01*
X120306801Y-87223194D01*
X120321153Y-87257842D01*
X120320734Y-87264234D01*
X120319318Y-87274996D01*
X120319318Y-87274998D01*
X120319318Y-87275000D01*
X120322086Y-87296028D01*
X120339955Y-87431761D01*
X120400461Y-87577836D01*
X120400464Y-87577841D01*
X120494845Y-87700842D01*
X120496718Y-87703282D01*
X120622159Y-87799536D01*
X120622161Y-87799536D01*
X120622163Y-87799538D01*
X120702728Y-87832909D01*
X120768238Y-87860044D01*
X120925000Y-87880682D01*
X121081762Y-87860044D01*
X121227841Y-87799536D01*
X121353282Y-87703282D01*
X121449536Y-87577841D01*
X121449538Y-87577834D01*
X121451144Y-87575056D01*
X121452783Y-87576002D01*
X121475060Y-87553729D01*
X121493809Y-87550000D01*
X121950000Y-87550000D01*
X121950000Y-86995494D01*
X121949999Y-86995493D01*
X121803801Y-87037969D01*
X121664626Y-87120277D01*
X121664620Y-87120282D01*
X121598524Y-87186378D01*
X121563876Y-87200730D01*
X121529228Y-87186378D01*
X121515295Y-87158125D01*
X121513429Y-87143954D01*
X121510044Y-87118238D01*
X121449538Y-86972163D01*
X121449535Y-86972158D01*
X121441764Y-86962031D01*
X121353282Y-86846718D01*
X121295542Y-86802413D01*
X121227841Y-86750464D01*
X121227836Y-86750461D01*
X121081761Y-86689955D01*
X120945637Y-86672034D01*
X120925000Y-86669318D01*
X120924999Y-86669318D01*
X120924996Y-86669318D01*
X120914234Y-86670734D01*
X120878010Y-86661025D01*
X120873194Y-86656801D01*
X120385311Y-86168917D01*
X120385282Y-86168890D01*
X120363343Y-86146951D01*
X120363342Y-86146950D01*
X120338340Y-86134210D01*
X120331789Y-86130195D01*
X120309090Y-86113703D01*
X120282403Y-86105032D01*
X120275300Y-86102090D01*
X120250303Y-86089353D01*
X120250304Y-86089353D01*
X120222589Y-86084963D01*
X120215118Y-86083170D01*
X120200763Y-86078506D01*
X120188434Y-86074500D01*
X120188433Y-86074500D01*
X120156519Y-86074500D01*
X119335986Y-86074500D01*
X119301338Y-86060148D01*
X119298109Y-86056585D01*
X119246412Y-85993592D01*
X119242159Y-85990102D01*
X119086450Y-85862315D01*
X118905720Y-85765712D01*
X118903956Y-85764769D01*
X118903955Y-85764768D01*
X118903954Y-85764768D01*
X118705934Y-85704700D01*
X118500000Y-85684417D01*
X118294065Y-85704700D01*
X118294064Y-85704700D01*
X118096043Y-85764769D01*
X117913548Y-85862316D01*
X117753590Y-85993590D01*
X117622316Y-86153548D01*
X117524769Y-86336043D01*
X117464700Y-86534064D01*
X117464700Y-86534065D01*
X117445830Y-86725658D01*
X117444417Y-86740000D01*
X115000500Y-86740000D01*
X115000500Y-85069748D01*
X117449500Y-85069748D01*
X117461133Y-85128231D01*
X117478882Y-85154795D01*
X117505447Y-85194552D01*
X117532012Y-85212301D01*
X117571769Y-85238867D01*
X117630252Y-85250500D01*
X117630255Y-85250500D01*
X119369745Y-85250500D01*
X119369748Y-85250500D01*
X119428231Y-85238867D01*
X119494552Y-85194552D01*
X119538867Y-85128231D01*
X119550500Y-85069748D01*
X119550500Y-84509500D01*
X119564852Y-84474852D01*
X119599500Y-84460500D01*
X119806016Y-84460500D01*
X119869239Y-84462660D01*
X119869240Y-84462659D01*
X119869245Y-84462660D01*
X119912036Y-84452231D01*
X119914468Y-84451769D01*
X119958111Y-84445771D01*
X119979280Y-84436575D01*
X119987183Y-84433917D01*
X120009594Y-84428457D01*
X120047970Y-84406878D01*
X120050204Y-84405768D01*
X120090609Y-84388219D01*
X120108505Y-84373658D01*
X120115404Y-84368962D01*
X120135512Y-84357658D01*
X120166660Y-84326508D01*
X120168508Y-84324841D01*
X120202665Y-84297054D01*
X120215966Y-84278207D01*
X120221344Y-84271823D01*
X120458317Y-84034852D01*
X120492965Y-84020500D01*
X121769663Y-84020500D01*
X121804311Y-84034852D01*
X121818663Y-84069500D01*
X121804311Y-84104148D01*
X121776777Y-84131681D01*
X121776776Y-84131683D01*
X121726029Y-84240510D01*
X121726028Y-84240511D01*
X121719500Y-84290102D01*
X121719500Y-84709896D01*
X121719501Y-84709901D01*
X121726027Y-84759487D01*
X121776776Y-84868316D01*
X121776777Y-84868318D01*
X121860148Y-84951689D01*
X121874500Y-84986337D01*
X121874500Y-85713663D01*
X121860148Y-85748311D01*
X121776777Y-85831681D01*
X121776776Y-85831683D01*
X121726029Y-85940510D01*
X121726028Y-85940511D01*
X121719500Y-85990102D01*
X121719500Y-86409896D01*
X121719501Y-86409901D01*
X121726027Y-86459487D01*
X121776776Y-86568316D01*
X121776777Y-86568318D01*
X121861681Y-86653222D01*
X121861683Y-86653223D01*
X121861684Y-86653224D01*
X121970513Y-86703972D01*
X122020099Y-86710500D01*
X122379900Y-86710499D01*
X122429487Y-86703972D01*
X122429495Y-86703968D01*
X122430891Y-86703562D01*
X122431827Y-86703664D01*
X122433205Y-86703483D01*
X122433249Y-86703819D01*
X122468172Y-86707636D01*
X122486790Y-86725658D01*
X122510277Y-86765373D01*
X122510281Y-86765378D01*
X122624621Y-86879718D01*
X122624626Y-86879722D01*
X122763802Y-86962031D01*
X122909999Y-87004505D01*
X122910000Y-87004504D01*
X122910000Y-85395494D01*
X122909999Y-85395493D01*
X122763801Y-85437969D01*
X122624626Y-85520277D01*
X122624621Y-85520281D01*
X122609148Y-85535755D01*
X122574500Y-85550107D01*
X122539852Y-85535755D01*
X122525500Y-85501107D01*
X122525500Y-84986337D01*
X122539852Y-84951689D01*
X122623222Y-84868318D01*
X122623224Y-84868316D01*
X122635591Y-84841795D01*
X122663241Y-84816458D01*
X122700708Y-84818094D01*
X122724409Y-84841795D01*
X122736776Y-84868316D01*
X122736777Y-84868318D01*
X122821681Y-84953222D01*
X122821683Y-84953223D01*
X122821684Y-84953224D01*
X122930513Y-85003972D01*
X122980099Y-85010500D01*
X123312033Y-85010499D01*
X123346681Y-85024851D01*
X123535148Y-85213317D01*
X123549500Y-85247965D01*
X123549500Y-85370760D01*
X123535148Y-85405408D01*
X123500500Y-85419760D01*
X123486830Y-85417814D01*
X123410000Y-85395493D01*
X123410000Y-87004505D01*
X123556197Y-86962031D01*
X123695373Y-86879722D01*
X123695378Y-86879718D01*
X123809718Y-86765378D01*
X123809722Y-86765373D01*
X123892031Y-86626197D01*
X123927752Y-86503244D01*
X123951200Y-86473975D01*
X123981200Y-86468333D01*
X124075000Y-86480682D01*
X124231762Y-86460044D01*
X124377841Y-86399536D01*
X124456199Y-86339409D01*
X124492420Y-86329704D01*
X124524899Y-86348455D01*
X124534606Y-86384680D01*
X124520673Y-86412933D01*
X124294516Y-86639091D01*
X124294513Y-86639092D01*
X124294514Y-86639093D01*
X124271951Y-86661657D01*
X124271949Y-86661659D01*
X124259210Y-86686658D01*
X124255196Y-86693208D01*
X124238704Y-86715909D01*
X124230032Y-86742595D01*
X124227092Y-86749693D01*
X124214354Y-86774695D01*
X124214353Y-86774700D01*
X124209962Y-86802413D01*
X124208168Y-86809885D01*
X124199500Y-86836564D01*
X124199500Y-89426236D01*
X124185148Y-89460884D01*
X124180330Y-89465110D01*
X124171716Y-89471719D01*
X124075464Y-89597158D01*
X124075461Y-89597163D01*
X124014955Y-89743238D01*
X123994318Y-89900000D01*
X124014955Y-90056761D01*
X124075461Y-90202836D01*
X124075464Y-90202841D01*
X124131759Y-90276207D01*
X124171718Y-90328282D01*
X124241177Y-90381580D01*
X124247754Y-90386626D01*
X124266506Y-90419104D01*
X124256799Y-90455329D01*
X124224321Y-90474081D01*
X124217925Y-90474500D01*
X123805122Y-90474500D01*
X123770474Y-90460148D01*
X123499852Y-90189526D01*
X123485500Y-90154878D01*
X123485500Y-89886337D01*
X123499852Y-89851689D01*
X123583222Y-89768318D01*
X123583224Y-89768316D01*
X123633972Y-89659487D01*
X123640500Y-89609901D01*
X123640499Y-89190100D01*
X123633972Y-89140513D01*
X123628643Y-89129086D01*
X123588180Y-89042312D01*
X123583224Y-89031684D01*
X123583223Y-89031683D01*
X123583222Y-89031681D01*
X123498318Y-88946777D01*
X123498316Y-88946776D01*
X123389489Y-88896029D01*
X123389488Y-88896028D01*
X123379569Y-88894722D01*
X123339901Y-88889500D01*
X123339897Y-88889500D01*
X122980103Y-88889500D01*
X122980098Y-88889501D01*
X122930508Y-88896028D01*
X122929088Y-88896442D01*
X122928148Y-88896338D01*
X122926795Y-88896517D01*
X122926751Y-88896185D01*
X122891808Y-88892352D01*
X122873209Y-88874340D01*
X122849722Y-88834626D01*
X122849718Y-88834621D01*
X122735378Y-88720281D01*
X122735373Y-88720277D01*
X122603311Y-88642176D01*
X122580793Y-88612186D01*
X122586078Y-88575057D01*
X122603311Y-88557824D01*
X122735373Y-88479722D01*
X122735378Y-88479718D01*
X122849718Y-88365378D01*
X122873207Y-88325659D01*
X122903197Y-88303141D01*
X122926790Y-88303520D01*
X122926796Y-88303482D01*
X122927133Y-88303526D01*
X122929095Y-88303558D01*
X122930507Y-88303969D01*
X122930513Y-88303972D01*
X122980099Y-88310500D01*
X123339900Y-88310499D01*
X123389487Y-88303972D01*
X123498316Y-88253224D01*
X123583224Y-88168316D01*
X123633972Y-88059487D01*
X123640500Y-88009901D01*
X123640499Y-87590100D01*
X123633972Y-87540513D01*
X123631274Y-87534728D01*
X123583260Y-87431762D01*
X123583224Y-87431684D01*
X123583223Y-87431683D01*
X123583222Y-87431681D01*
X123498318Y-87346777D01*
X123498316Y-87346776D01*
X123389489Y-87296029D01*
X123389488Y-87296028D01*
X123379569Y-87294722D01*
X123339901Y-87289500D01*
X123339897Y-87289500D01*
X122980103Y-87289500D01*
X122980098Y-87289501D01*
X122930508Y-87296028D01*
X122929088Y-87296442D01*
X122928148Y-87296338D01*
X122926795Y-87296517D01*
X122926751Y-87296185D01*
X122891808Y-87292352D01*
X122873209Y-87274340D01*
X122849722Y-87234626D01*
X122849718Y-87234621D01*
X122735378Y-87120281D01*
X122735373Y-87120277D01*
X122596198Y-87037969D01*
X122450000Y-86995493D01*
X122450000Y-90204505D01*
X122596197Y-90162031D01*
X122735373Y-90079722D01*
X122735378Y-90079718D01*
X122750852Y-90064245D01*
X122785500Y-90049893D01*
X122820148Y-90064245D01*
X122834500Y-90098893D01*
X122834500Y-90294710D01*
X122834407Y-90296846D01*
X122830736Y-90338807D01*
X122841637Y-90379493D01*
X122842100Y-90381580D01*
X122849411Y-90423044D01*
X122849412Y-90423046D01*
X122853455Y-90430048D01*
X122858351Y-90441867D01*
X122860445Y-90449682D01*
X122860444Y-90449682D01*
X122884601Y-90484182D01*
X122885744Y-90485977D01*
X122893313Y-90499085D01*
X122906804Y-90522453D01*
X122906806Y-90522455D01*
X122939072Y-90549530D01*
X122940649Y-90550975D01*
X123409025Y-91019351D01*
X123410470Y-91020928D01*
X123437544Y-91053193D01*
X123437545Y-91053195D01*
X123461449Y-91066995D01*
X123474029Y-91074258D01*
X123475806Y-91075390D01*
X123510316Y-91099554D01*
X123518128Y-91101646D01*
X123529943Y-91106539D01*
X123536955Y-91110588D01*
X123573419Y-91117017D01*
X123578424Y-91117900D01*
X123580508Y-91118362D01*
X123621193Y-91129264D01*
X123657933Y-91126049D01*
X123663157Y-91125593D01*
X123665293Y-91125500D01*
X126234710Y-91125500D01*
X126236846Y-91125593D01*
X126244900Y-91126297D01*
X126278807Y-91129264D01*
X126319495Y-91118361D01*
X126321574Y-91117900D01*
X126363045Y-91110588D01*
X126370054Y-91106540D01*
X126381871Y-91101646D01*
X126389684Y-91099554D01*
X126424179Y-91075400D01*
X126425978Y-91074253D01*
X126462455Y-91053194D01*
X126489545Y-91020908D01*
X126490943Y-91019382D01*
X126969380Y-90540944D01*
X126970918Y-90539536D01*
X127003194Y-90512454D01*
X127011114Y-90498734D01*
X127040865Y-90475905D01*
X127078048Y-90480799D01*
X127080760Y-90482485D01*
X127084883Y-90485240D01*
X127084885Y-90485241D01*
X127163960Y-90500970D01*
X127163744Y-90502050D01*
X127193748Y-90518081D01*
X127194750Y-90519344D01*
X127286319Y-90638679D01*
X127286320Y-90638680D01*
X127403822Y-90728842D01*
X127403827Y-90728845D01*
X127540658Y-90785522D01*
X127624998Y-90796625D01*
X127625000Y-90796624D01*
X127625000Y-89811500D01*
X127639352Y-89776852D01*
X127674000Y-89762500D01*
X127826000Y-89762500D01*
X127860648Y-89776852D01*
X127875000Y-89811500D01*
X127875000Y-90796624D01*
X127875001Y-90796625D01*
X127959341Y-90785522D01*
X128096172Y-90728845D01*
X128096177Y-90728842D01*
X128213677Y-90638681D01*
X128305248Y-90519343D01*
X128336145Y-90501504D01*
X128336039Y-90500968D01*
X128337617Y-90500653D01*
X128337727Y-90500591D01*
X128338217Y-90500534D01*
X128338392Y-90500499D01*
X128338400Y-90500499D01*
X128415117Y-90485240D01*
X128502112Y-90427112D01*
X128560240Y-90340117D01*
X128575500Y-90263401D01*
X128575499Y-89680438D01*
X128589851Y-89645791D01*
X128595134Y-89641212D01*
X128607190Y-89632186D01*
X128693351Y-89517091D01*
X128743598Y-89382373D01*
X128743598Y-89382372D01*
X128750000Y-89322834D01*
X128750000Y-88925000D01*
X125750000Y-88925000D01*
X125750000Y-89322834D01*
X125756401Y-89382372D01*
X125756401Y-89382373D01*
X125806648Y-89517091D01*
X125892810Y-89632188D01*
X125904864Y-89641211D01*
X125924001Y-89673464D01*
X125924500Y-89680438D01*
X125924500Y-90263396D01*
X125939760Y-90340117D01*
X125978621Y-90398277D01*
X125985937Y-90435060D01*
X125965102Y-90466242D01*
X125937879Y-90474500D01*
X124982075Y-90474500D01*
X124947427Y-90460148D01*
X124933075Y-90425500D01*
X124947427Y-90390852D01*
X124952246Y-90386626D01*
X125028282Y-90328282D01*
X125124536Y-90202841D01*
X125185044Y-90056762D01*
X125205682Y-89900000D01*
X125185044Y-89743238D01*
X125150353Y-89659487D01*
X125124538Y-89597163D01*
X125124535Y-89597158D01*
X125028283Y-89471719D01*
X125019670Y-89465110D01*
X125000919Y-89432631D01*
X125000500Y-89426236D01*
X125000500Y-87086188D01*
X125014852Y-87051540D01*
X125151540Y-86914852D01*
X125186188Y-86900500D01*
X125413811Y-86900500D01*
X125448459Y-86914852D01*
X125685148Y-87151541D01*
X125699500Y-87186189D01*
X125699500Y-87494019D01*
X125714354Y-87587804D01*
X125714354Y-87587805D01*
X125714355Y-87587807D01*
X125714355Y-87587809D01*
X125771945Y-87700835D01*
X125771950Y-87700842D01*
X125818309Y-87747201D01*
X125832661Y-87781849D01*
X125822889Y-87811212D01*
X125806648Y-87832909D01*
X125756401Y-87967626D01*
X125756401Y-87967627D01*
X125750000Y-88027165D01*
X125750000Y-88425000D01*
X127000000Y-88425000D01*
X127000000Y-88020135D01*
X127008256Y-87992915D01*
X127060240Y-87915117D01*
X127075500Y-87838401D01*
X127075499Y-87799916D01*
X127084014Y-87772314D01*
X127160472Y-87660173D01*
X127160473Y-87660170D01*
X127185869Y-87577836D01*
X127200500Y-87530402D01*
X127200500Y-85926677D01*
X127200654Y-85923932D01*
X127201808Y-85913690D01*
X127216898Y-85886386D01*
X127215121Y-85885571D01*
X127283284Y-85885571D01*
X127288809Y-85888625D01*
X127299500Y-85919176D01*
X127299500Y-87496262D01*
X127307600Y-87550000D01*
X127314652Y-87596788D01*
X127314654Y-87596795D01*
X127373572Y-87719138D01*
X127373573Y-87719139D01*
X127373574Y-87719140D01*
X127373575Y-87719142D01*
X127411420Y-87759930D01*
X127424500Y-87793256D01*
X127424500Y-87838396D01*
X127424501Y-87838400D01*
X127439760Y-87915117D01*
X127491743Y-87992915D01*
X127500000Y-88020135D01*
X127500000Y-88425000D01*
X128750000Y-88425000D01*
X128750000Y-88027165D01*
X128743598Y-87967623D01*
X128725427Y-87918905D01*
X128726765Y-87881426D01*
X128737889Y-87865972D01*
X128811469Y-87797255D01*
X128886526Y-87673828D01*
X128923813Y-87540745D01*
X128936345Y-87519323D01*
X129165817Y-87289852D01*
X129200465Y-87275500D01*
X129814740Y-87275500D01*
X129833491Y-87279230D01*
X129968238Y-87335044D01*
X130125000Y-87355682D01*
X130281762Y-87335044D01*
X130427841Y-87274536D01*
X130553282Y-87178282D01*
X130649536Y-87052841D01*
X130710044Y-86906762D01*
X130730682Y-86750000D01*
X130710044Y-86593238D01*
X130663422Y-86480682D01*
X130649538Y-86447163D01*
X130649535Y-86447158D01*
X130623273Y-86412933D01*
X130553282Y-86321718D01*
X130551921Y-86320674D01*
X130427841Y-86225464D01*
X130427836Y-86225461D01*
X130281761Y-86164955D01*
X130125000Y-86144318D01*
X129968238Y-86164955D01*
X129833491Y-86220770D01*
X129814740Y-86224500D01*
X128971484Y-86224500D01*
X128908261Y-86222339D01*
X128908252Y-86222340D01*
X128865482Y-86232762D01*
X128863018Y-86233230D01*
X128819394Y-86239227D01*
X128819380Y-86239231D01*
X128798222Y-86248421D01*
X128790306Y-86251083D01*
X128767907Y-86256542D01*
X128767905Y-86256542D01*
X128729527Y-86278120D01*
X128727280Y-86279236D01*
X128686891Y-86296780D01*
X128668995Y-86311340D01*
X128662089Y-86316040D01*
X128641988Y-86327342D01*
X128641984Y-86327345D01*
X128610851Y-86358477D01*
X128608989Y-86360158D01*
X128574836Y-86387944D01*
X128561531Y-86406792D01*
X128556149Y-86413180D01*
X128284148Y-86685182D01*
X128249500Y-86699534D01*
X128214852Y-86685182D01*
X128200500Y-86650534D01*
X128200500Y-86031900D01*
X128214852Y-85997252D01*
X128297252Y-85914852D01*
X128331900Y-85900500D01*
X128779256Y-85900500D01*
X128779266Y-85900500D01*
X128809699Y-85897646D01*
X128937882Y-85852793D01*
X129047150Y-85772150D01*
X129070655Y-85740302D01*
X129127791Y-85662885D01*
X129127791Y-85662884D01*
X129127793Y-85662882D01*
X129172646Y-85534699D01*
X129175500Y-85504266D01*
X129175500Y-83695734D01*
X129172646Y-83665301D01*
X129139983Y-83571956D01*
X129127795Y-83537123D01*
X129127791Y-83537114D01*
X129047150Y-83427849D01*
X128937885Y-83347208D01*
X128937876Y-83347204D01*
X128809698Y-83302353D01*
X128779275Y-83299500D01*
X128779266Y-83299500D01*
X128235813Y-83299500D01*
X128224909Y-83298271D01*
X128104049Y-83270685D01*
X128104046Y-83270685D01*
X128075724Y-83272807D01*
X127968624Y-83280833D01*
X127927603Y-83296932D01*
X127914277Y-83300105D01*
X127890302Y-83302353D01*
X127890300Y-83302353D01*
X127762123Y-83347204D01*
X127762114Y-83347208D01*
X127652849Y-83427849D01*
X127572208Y-83537114D01*
X127572204Y-83537123D01*
X127527353Y-83665300D01*
X127527353Y-83665301D01*
X127524500Y-83695724D01*
X127524500Y-85393100D01*
X127510148Y-85427748D01*
X127510148Y-85427749D01*
X127450314Y-85487581D01*
X127448265Y-85489413D01*
X127416033Y-85515118D01*
X127416025Y-85515126D01*
X127382519Y-85564271D01*
X127347208Y-85612115D01*
X127347204Y-85612121D01*
X127346496Y-85614146D01*
X127340745Y-85625539D01*
X127339529Y-85627323D01*
X127339528Y-85627325D01*
X127321992Y-85684178D01*
X127302353Y-85740301D01*
X127302353Y-85740302D01*
X127302272Y-85742454D01*
X127300134Y-85755039D01*
X127299500Y-85757093D01*
X127299500Y-85816574D01*
X127298129Y-85853215D01*
X127283284Y-85885571D01*
X127215121Y-85885571D01*
X127213243Y-85884710D01*
X127201018Y-85860494D01*
X127194211Y-85824520D01*
X127185348Y-85765713D01*
X127184422Y-85763791D01*
X127180420Y-85751629D01*
X127180023Y-85749529D01*
X127180021Y-85749523D01*
X127152226Y-85696936D01*
X127135824Y-85662876D01*
X127126425Y-85643358D01*
X127124967Y-85641787D01*
X127117563Y-85631351D01*
X127116565Y-85629462D01*
X127074516Y-85587413D01*
X127037829Y-85547874D01*
X127024784Y-85512715D01*
X127024965Y-85509966D01*
X127025500Y-85504266D01*
X127025500Y-83695734D01*
X127022646Y-83665301D01*
X126989983Y-83571956D01*
X126977795Y-83537123D01*
X126977791Y-83537114D01*
X126897150Y-83427849D01*
X126787885Y-83347208D01*
X126787876Y-83347204D01*
X126659698Y-83302353D01*
X126629275Y-83299500D01*
X126629266Y-83299500D01*
X126085813Y-83299500D01*
X126074909Y-83298271D01*
X125954049Y-83270685D01*
X125954046Y-83270685D01*
X125925724Y-83272807D01*
X125818624Y-83280833D01*
X125777603Y-83296932D01*
X125764277Y-83300105D01*
X125740302Y-83302353D01*
X125740300Y-83302353D01*
X125612123Y-83347204D01*
X125612114Y-83347208D01*
X125502849Y-83427849D01*
X125422208Y-83537114D01*
X125422204Y-83537123D01*
X125377353Y-83665300D01*
X125377353Y-83665301D01*
X125374500Y-83695724D01*
X125374500Y-85504275D01*
X125377353Y-85534698D01*
X125377353Y-85534699D01*
X125422204Y-85662876D01*
X125422208Y-85662885D01*
X125502849Y-85772150D01*
X125612114Y-85852791D01*
X125612117Y-85852792D01*
X125612118Y-85852793D01*
X125612120Y-85852793D01*
X125612123Y-85852795D01*
X125714520Y-85888625D01*
X125740301Y-85897646D01*
X125770734Y-85900500D01*
X126093101Y-85900500D01*
X126127749Y-85914852D01*
X126285148Y-86072251D01*
X126299500Y-86106899D01*
X126299500Y-86514810D01*
X126285148Y-86549458D01*
X126250500Y-86563810D01*
X126215852Y-86549458D01*
X125860311Y-86193917D01*
X125860282Y-86193890D01*
X125838343Y-86171951D01*
X125838342Y-86171950D01*
X125813340Y-86159210D01*
X125806789Y-86155195D01*
X125784090Y-86138703D01*
X125757403Y-86130032D01*
X125750300Y-86127090D01*
X125725303Y-86114353D01*
X125725304Y-86114353D01*
X125697589Y-86109963D01*
X125690118Y-86108170D01*
X125671405Y-86102090D01*
X125663434Y-86099500D01*
X125663433Y-86099500D01*
X125631519Y-86099500D01*
X124968481Y-86099500D01*
X124967488Y-86099500D01*
X124967464Y-86099501D01*
X124936565Y-86099501D01*
X124909887Y-86108169D01*
X124902413Y-86109963D01*
X124874696Y-86114353D01*
X124874693Y-86114354D01*
X124849692Y-86127092D01*
X124842592Y-86130033D01*
X124815913Y-86138702D01*
X124815907Y-86138705D01*
X124793206Y-86155197D01*
X124786655Y-86159212D01*
X124761661Y-86171948D01*
X124761654Y-86171953D01*
X124739091Y-86194517D01*
X124612932Y-86320675D01*
X124578284Y-86335026D01*
X124543635Y-86320674D01*
X124529284Y-86286026D01*
X124539408Y-86256201D01*
X124599536Y-86177841D01*
X124660044Y-86031762D01*
X124680682Y-85875000D01*
X124660044Y-85718238D01*
X124604230Y-85583491D01*
X124600500Y-85564740D01*
X124600500Y-85018985D01*
X124602660Y-84955763D01*
X124602659Y-84955761D01*
X124602660Y-84955757D01*
X124592235Y-84912981D01*
X124591767Y-84910516D01*
X124585771Y-84866890D01*
X124576577Y-84845726D01*
X124573918Y-84837819D01*
X124568458Y-84815408D01*
X124546873Y-84777020D01*
X124545764Y-84774786D01*
X124539119Y-84759487D01*
X124528219Y-84734392D01*
X124513658Y-84716494D01*
X124508963Y-84709597D01*
X124497658Y-84689490D01*
X124466516Y-84658348D01*
X124464844Y-84656495D01*
X124437056Y-84622338D01*
X124437048Y-84622330D01*
X124418211Y-84609035D01*
X124411819Y-84603651D01*
X124028665Y-84220496D01*
X122937925Y-83129756D01*
X122894755Y-83083532D01*
X122894754Y-83083531D01*
X122857142Y-83060658D01*
X122855067Y-83059246D01*
X122819975Y-83032635D01*
X122798508Y-83024169D01*
X122791028Y-83020453D01*
X122771329Y-83008474D01*
X122771327Y-83008473D01*
X122728936Y-82996596D01*
X122726558Y-82995796D01*
X122691736Y-82982065D01*
X122685588Y-82979641D01*
X122676136Y-82978669D01*
X122662639Y-82977281D01*
X122654434Y-82975721D01*
X122632228Y-82969500D01*
X122632227Y-82969500D01*
X122588194Y-82969500D01*
X122585687Y-82969371D01*
X122541891Y-82964868D01*
X122519159Y-82968788D01*
X122510834Y-82969500D01*
X120263984Y-82969500D01*
X120200761Y-82967339D01*
X120200752Y-82967340D01*
X120157982Y-82977762D01*
X120155518Y-82978230D01*
X120111894Y-82984227D01*
X120111880Y-82984231D01*
X120090722Y-82993421D01*
X120082806Y-82996083D01*
X120060407Y-83001542D01*
X120060405Y-83001542D01*
X120022025Y-83023121D01*
X120019778Y-83024237D01*
X119979391Y-83041780D01*
X119961496Y-83056338D01*
X119954594Y-83061036D01*
X119943866Y-83067068D01*
X119934488Y-83072342D01*
X119934487Y-83072343D01*
X119903346Y-83103482D01*
X119901483Y-83105162D01*
X119867332Y-83132948D01*
X119854033Y-83151789D01*
X119848650Y-83158179D01*
X119634148Y-83372682D01*
X119599500Y-83387034D01*
X119564852Y-83372682D01*
X119550500Y-83338034D01*
X119550500Y-83330255D01*
X119550500Y-83330252D01*
X119538867Y-83271769D01*
X119512301Y-83232012D01*
X119494552Y-83205447D01*
X119454795Y-83178882D01*
X119428231Y-83161133D01*
X119369748Y-83149500D01*
X117630252Y-83149500D01*
X117571769Y-83161133D01*
X117505447Y-83205447D01*
X117461857Y-83270685D01*
X117461133Y-83271769D01*
X117449500Y-83330252D01*
X117449500Y-85069748D01*
X115000500Y-85069748D01*
X115000500Y-85000000D01*
X115009491Y-84782602D01*
X115016647Y-84618723D01*
X115023725Y-84537806D01*
X115045510Y-84363042D01*
X115046220Y-84357658D01*
X115056679Y-84278210D01*
X115068838Y-84185856D01*
X115079335Y-84126323D01*
X115117209Y-83945691D01*
X115158563Y-83759163D01*
X115168022Y-83723858D01*
X115224115Y-83535447D01*
X115285132Y-83341927D01*
X115285760Y-83340199D01*
X115287767Y-83334684D01*
X115365495Y-83135484D01*
X115443913Y-82946170D01*
X115444524Y-82944813D01*
X115540282Y-82748937D01*
X115634995Y-82566997D01*
X115635635Y-82565851D01*
X115747213Y-82378598D01*
X115787396Y-82315522D01*
X115857511Y-82205464D01*
X115858157Y-82204507D01*
X115984851Y-82027061D01*
X116003362Y-82002936D01*
X116109857Y-81864149D01*
X116110521Y-81863326D01*
X116251465Y-81696913D01*
X116390552Y-81545126D01*
X116545126Y-81390552D01*
X116696913Y-81251465D01*
X116863326Y-81110520D01*
X116864146Y-81109859D01*
X117027054Y-80984856D01*
X117204507Y-80858157D01*
X117205464Y-80857511D01*
X117315522Y-80787396D01*
X117378601Y-80747212D01*
X117378628Y-80747196D01*
X117565851Y-80635635D01*
X117567018Y-80634983D01*
X117748969Y-80540266D01*
X117944813Y-80444524D01*
X117946170Y-80443913D01*
X118135484Y-80365495D01*
X118334718Y-80287754D01*
X118340199Y-80285760D01*
X118341927Y-80285132D01*
X118535447Y-80224115D01*
X118723838Y-80168028D01*
X118759175Y-80158559D01*
X118866670Y-80134728D01*
X118945662Y-80117215D01*
X119126346Y-80079330D01*
X119185861Y-80068837D01*
X119320090Y-80051165D01*
X119363085Y-80045505D01*
X119537826Y-80023723D01*
X119592015Y-80018983D01*
X119618723Y-80016647D01*
X119711374Y-80012601D01*
X119782280Y-80009505D01*
X120000000Y-80000500D01*
X120000500Y-80000500D01*
X126999500Y-80000500D01*
X126999999Y-80000500D01*
X127000995Y-80000541D01*
G37*
%TD.AperFunction*%
%TD*%
M02*
